<?xml version="1.0" encoding="UTF-8" standalone="no"?>
<!-- Created with Inkscape (http://www.inkscape.org/) -->

<svg
   xmlns:dc="http://purl.org/dc/elements/1.1/"
   xmlns:cc="http://creativecommons.org/ns#"
   xmlns:rdf="http://www.w3.org/1999/02/22-rdf-syntax-ns#"
   xmlns:svg="http://www.w3.org/2000/svg"
   xmlns="http://www.w3.org/2000/svg"
   xmlns:sodipodi="http://sodipodi.sourceforge.net/DTD/sodipodi-0.dtd"
   xmlns:inkscape="http://www.inkscape.org/namespaces/inkscape"
   version="1.1"
   id="svg850"
   width="404.1955"
   height="94.959915"
   viewBox="0 0 404.1955 94.959917"
   sodipodi:docname="dhruvratheefclogo.svg"
   inkscape:version="0.92.5 (2060ec1f9f, 2020-04-08)">
  <metadata
     id="metadata856">
    <rdf:RDF>
      <cc:Work
         rdf:about="">
        <dc:format>image/svg+xml</dc:format>
        <dc:type
           rdf:resource="http://purl.org/dc/dcmitype/StillImage" />
        <dc:title />
      </cc:Work>
    </rdf:RDF>
  </metadata>
  <defs
     id="defs854" />
  <sodipodi:namedview
     pagecolor="#ffffff"
     bordercolor="#666666"
     borderopacity="1"
     objecttolerance="10"
     gridtolerance="10"
     guidetolerance="10"
     inkscape:pageopacity="0"
     inkscape:pageshadow="2"
     inkscape:window-width="1366"
     inkscape:window-height="683"
     id="namedview852"
     showgrid="false"
     inkscape:zoom="1.12"
     inkscape:cx="151.27943"
     inkscape:cy="-16.42121"
     inkscape:window-x="0"
     inkscape:window-y="0"
     inkscape:window-maximized="1"
     inkscape:current-layer="svg850" />
  <path
     style="fill:#000000;stroke-width:2.03815985"
     d="m 100.54532,49.988011 c -2.666519,-2.52221 -7.184709,-8.06903 -10.040409,-12.32623 -5.4754,-8.16258 -7.74114,-7.04135 -7.74114,3.83075 0,3.06719 -1.17885,4.92871 -3.12121,4.92871 -5.17117,0 -5.7556,-5.67428 -2.00972,-19.51266 2.9373,-10.85129 3.0955,-13.69603 0.90818,-16.33158 -2.97757,-3.5877399 -0.73452,-5.9442399 7.82909,-8.2250999 9.7579,-2.59894006 22.741289,8.3461799 16.867769,14.2196799 -0.99667,0.99668 -1.36361,2.98098 -0.81541,4.40955 0.5482,1.42858 -1.04125,4.02485 -3.532099,5.76952 l -4.52881,3.17211 5.836099,7.7397 c 3.20986,4.25683 6.56199,8.04542 7.44916,8.41909 2.29184,0.96528 2.00811,8.492325 -0.32013,8.492325 -1.06323,0 -4.11485,-2.06364 -6.78138,-4.585865 z m -1.476259,-37.41779 c 0,-1.31985 -1.58086,-3.0063599 -3.51302,-3.7478099 -4.01322,-1.54001 -8.71595,3.6231799 -8.71595,9.5693799 0,3.66831 0.21502,3.67499 6.11448,0.1901 3.36296,-1.98654 6.11449,-4.69178 6.11449,-6.01164 z m 123.765849,37.41779 c -2.66655,-2.52221 -7.18471,-8.06903 -10.04038,-12.32623 -5.47544,-8.16258 -7.74114,-7.04135 -7.74114,3.83075 0,3.06719 -1.17888,4.92871 -3.12123,4.92871 -5.1712,0 -5.75563,-5.67428 -2.0097,-19.51266 2.93725,-10.85129 3.09547,-13.69603 0.90818,-16.33158 -2.97758,-3.5877399 -0.73454,-5.9442399 7.82904,-8.2250999 9.75789,-2.59894006 22.74126,8.3461799 16.86782,14.2196799 -0.99669,0.99668 -1.36366,2.98098 -0.81547,4.40955 0.54826,1.42858 -1.0088,4.00214 -3.46001,5.71904 l -4.45674,3.12162 4.22473,5.93304 c 2.32355,3.26318 5.64327,7.11036 7.37706,8.54929 3.4438,2.8581 4.32371,10.269755 1.21921,10.269755 -1.06323,0 -4.11481,-2.06364 -6.78137,-4.585865 z m -1.47626,-37.41779 c 0,-1.31985 -1.58085,-3.0063599 -3.51305,-3.7478099 -4.01321,-1.54001 -8.71595,3.6231799 -8.71595,9.5693799 0,3.66831 0.21483,3.67499 6.1145,0.1901 3.36294,-1.98654 6.1145,-4.69178 6.1145,-6.01164 z m 36.93829,37.54043 c -0.97849,-2.58967 -2.42366,-8.55039 -3.2115,-13.24604 -1.13441,-6.7613 -2.12285,-8.27261 -4.75091,-7.26414 -5.43373,2.08513 -10.88095,7.33399 -12.86924,12.40058 -1.02554,2.61333 -3.00546,4.37583 -4.39974,3.91666 -4.42507,-1.45719 -3.93993,-8.90783 1.2851,-19.73886 2.78548,-5.77389 5.66211,-13.21935 6.3927,-16.5454299 2.77712,-12.64422 15.93611,-12.91521 18.28834,-0.37659 0.77758,4.1448399 2.44441,9.3873099 3.70408,11.6499199 1.2596,2.26261 2.12601,4.70995 1.92522,5.4385 -0.20098,0.72858 -0.53375,6.95079 -0.74021,13.82714 -0.40262,13.414255 -2.74583,17.555285 -5.62384,9.9383 z m -7.35149,-33.87606 c -1.22257,-3.17268 -1.48938,-3.15325 -3.39833,0.24756 -1.13947,2.02982 -1.47468,5.23993 -0.74495,7.13357 1.22251,3.17268 1.48932,3.15325 3.39833,-0.24758 1.1394,-2.02982 1.47462,-5.23991 0.74495,-7.13355 z m 29.04659,35.03002 c -1.23628,-1.90382 -0.77823,-17.12463 1.09657,-36.43486 0.21944,-2.26348 -0.7058,-3.86018 -2.08126,-3.59033 -1.36233,0.26727 -4.90142,-0.43577 -7.86462,-1.5623899 -4.46756,-1.69857 -4.95915,-2.5647 -2.87841,-5.07185 1.8526,-2.23222 6.97774,-3.02345 19.58404,-3.02345 17.57133,0 22.35247,2.59514 10.45079,5.67251 -6.41274,1.65811 -6.71771,2.22873 -9.56224,17.8921699 -1.61597,8.89868 -3.58718,16.63801 -4.38038,17.1985 -0.79319,0.56052 -1.76503,3.31201 -2.15967,6.11449 -0.42702,3.03231 -1.3197,4.168125 -2.20482,2.80521 z m -147.69587,-4.74392 c -0.81284,-3.10828 -2.12409,-3.99494 -4.4512,-3.00987 -8.37939,3.54705 -12.03298,3.20525 -15.27919,-1.42934 -4.00645,-5.72 -4.40382,-24.96282 -0.66799,-32.3471099 3.11553,-6.1582 8.81773,-6.88351 8.0116,-1.01908 -4.1112,29.9079199 -2.70562,33.3951799 7.68112,19.0567099 4.28522,-5.91558 6.12726,-10.81744 6.12726,-16.30528 0,-5.6876699 0.85884,-7.8468299 3.1212,-7.8468299 4.82494,0 5.392,4.00502 3.61829,25.5553099 -1.11246,13.51624 -2.51146,20.2627 -4.32645,20.86367 -1.48978,0.49329 -3.19466,-1.0709 -3.83464,-3.51818 z m 189.98282,1.98958 c -0.80848,-1.30814 -0.8608,-6.4406 -0.11668,-11.40545 1.34691,-8.98108 1.32247,-9.02702 -4.79321,-9.02702 -5.49929,0 -6.29235,0.80541 -7.52619,7.64311 -1.8468,10.23495 -2.63057,11.24282 -6.0691,7.80431 -3.58494,-3.58497 -3.59054,-8.63019 -0.0263,-25.23868 3.13466,-14.6142699 3.48503,-15.2173099 7.86502,-13.5365599 2.37772,0.9124 2.90548,3.01029 2.0632,8.2006199 -1.1145,6.86785 -1.01855,6.97457 6.26843,6.97457 6.22356,0 7.44962,-0.72917 7.71069,-4.58587 0.17068,-2.52222 0.40395,-5.8864799 0.51795,-7.4761299 0.29983,-4.17377 5.06273,-5.15821 6.52463,-1.34861 1.77504,4.6257799 -4.8143,38.2412499 -8.15002,41.5769699 -2.07513,2.07513 -3.17666,2.18322 -4.26717,0.41877 z M 3.2578892,43.894591 C -0.12547178,40.262981 -0.55253178,37.814721 0.52528522,28.229121 2.2062742,13.279221 5.7354762,2.5514311 8.8893662,2.8046211 c 1.3963438,0.11205 5.1814998,0.34141 8.4114478,0.50958 8.7735,0.45673 18.602589,11.3707399 18.520465,20.5647099 -0.09488,10.61376 -7.707014,18.34139 -22.146817,22.48269 -5.3325068,1.52934 -7.0787458,1.11577 -10.4165728,-2.46696 z m 14.4162388,-9.70231 c 1.00993,0 4.521636,-2.49698 7.803801,-5.54884 5.647035,-5.25079 5.810326,-5.8529 3.040127,-11.20986 -2.316589,-4.4798 -4.351874,-5.66105 -9.753888,-5.66105 -6.015098,0 -6.977853,0.75701 -8.100299,6.36925 -2.3764558,11.88228 -1.6125108,18.65475 1.950088,17.28764 1.773163,-0.68043 4.050236,-1.23714 5.060171,-1.23714 z m 41.650806,4.07633 1.401593,-10.19081 h -6.12658 c -5.559358,0 -6.25412,0.75483 -7.503972,8.15265 -1.455449,8.6147 -5.95193,11.01013 -8.080194,4.30457 -1.071926,-3.37734 4.163149,-34.6539099 6.135714,-36.6573899 0.412253,-0.41869 2.20872,-0.20144 3.992081,0.48296 2.499314,0.95908 2.934623,2.88534 1.899234,8.4044099 -1.328238,7.08014 -1.263517,7.16018 5.7903,7.16018 6.626961,0 7.23519,-0.54167 8.564511,-7.62758 1.89323,-10.0917899 2.822319,-11.2837399 6.17895,-7.9270999 2.40126,2.40127 2.25712,5.56757 -0.970729,21.3224399 -4.245176,20.72046 -5.103821,22.76647 -9.554289,22.76647 -2.581963,0 -2.883458,-1.77952 -1.726619,-10.19079 z m 87.974196,-8.55892 c -0.70027,-9.30494 -1.87273,-19.52496 -2.60545,-22.7111399 -1.25964,-5.47732 -1.09859,-5.64714 2.95476,-3.11578 2.35784,1.4725 4.77388,5.22585 5.36895,8.3407599 0.59511,3.11492 1.62123,8.45046 2.28031,11.85676 l 1.19833,6.19329 6.1255,-9.24784 c 7.04074,-10.62954 9.39645,-12.5314899 12.13239,-9.79552 2.8732,2.87317 -16.90203,34.00608 -22.09482,34.78475 -3.72836,0.55906 -4.19839,-0.87079 -5.35997,-16.30528 z m 190.2346,14.06495 c 0,-1.77502 0.73626,-3.68234 1.6362,-4.23852 0.89987,-0.55617 1.80977,-6.34261 2.02203,-12.85878 0.21218,-6.51616 1.14698,-14.59909 2.07723,-17.9620499 1.63304,-5.90352 2.10242,-6.11449 13.60385,-6.11449 14.67446,0 16.77767,3.58392 4.17411,7.11268 -6.75045,1.8900099 -9.24626,3.6176399 -9.24626,6.4002499 0,3.08791 1.54763,3.81144 8.1526,3.81144 11.11442,0 10.26712,3.16249 -1.61083,6.01196 -5.55498,1.33263 -10.83358,4.05583 -12.2462,6.31777 -2.36633,3.78905 -1.8605,3.97555 10.78251,3.97555 7.29594,0 13.26534,0.69655 13.26534,1.54788 0,3.32037 -8.75541,6.73025 -20.40848,7.94823 -10.31029,1.07764 -12.2021,0.77501 -12.2021,-1.95192 z m 35.32991,-2.64383 c 0.62865,-3.25569 1.7392,-12.5307 2.46754,-20.61114 0.73627,-8.16858 2.52013,-15.6841899 4.01769,-16.9270699 3.33947,-2.77147006 23.84092,-1.79362 24.82022,1.18384 0.3934,1.1966 -3.65757,3.53372 -9.00253,5.19361 -5.92735,1.8407499 -9.97865,4.3709499 -10.38608,6.4865399 -0.55023,2.85774 0.97355,3.46858 8.65322,3.46858 12.08171,0 11.91928,2.93818 -0.33279,6.02334 -10.33751,2.60301 -14.80151,5.31712 -14.8075,9.00288 -0.002,1.52711 4.10032,2.06646 12.22899,1.60757 6.98901,-0.39452 12.23268,0.15373 12.23268,1.27906 0,4.04646 -5.88465,6.58354 -18.2735,7.87843 l -12.76097,1.33379 z"
     id="path860"
     inkscape:connector-curvature="0" />
  <text
     xml:space="preserve"
     style="font-style:normal;font-weight:normal;font-size:40px;line-height:1.25;font-family:sans-serif;letter-spacing:0px;word-spacing:0px;fill:#4d4d4d;fill-opacity:1;stroke:none"
     x="34.109463"
     y="94.608353"
     id="text822"><tspan
       sodipodi:role="line"
       id="tspan820"
       x="34.109463"
       y="94.608353"
       style="font-style:normal;font-variant:normal;font-weight:normal;font-stretch:normal;font-family:'Atozimple ExtraLight';-inkscape-font-specification:'Atozimple ExtraLight, ';fill:#4d4d4d">F  A  N     C  L  U  B</tspan></text>
</svg>
